<svg xmlns="http://www.w3.org/2000/svg" xmlns:xlink="http://www.w3.org/1999/xlink" width="1890" zoomAndPan="magnify" viewBox="0 0 1417.5 1417.500002" height="1890" preserveAspectRatio="xMidYMid meet" version="1.0"><defs><clipPath id="36510d43ad"><path d="M 0.972656 0.972656 L 1355.914062 0.972656 L 1355.914062 1355.914062 L 0.972656 1355.914062 Z M 0.972656 0.972656 " clip-rule="nonzero"/></clipPath><clipPath id="da9cfe9ce5"><rect x="0" width="1357" y="0" height="1357"/></clipPath></defs><g transform="matrix(1, 0, 0, 1, 30, 30)"><g clip-path="url(#da9cfe9ce5)"><g clip-path="url(#36510d43ad)"><path fill="#ffde59" d="M 678.496094 0.972656 C 304.046875 0.972656 0.972656 303.996094 0.972656 678.496094 C 0.972656 1052.945312 303.996094 1356.019531 678.496094 1356.019531 C 1052.945312 1356.019531 1356.019531 1052.996094 1356.019531 678.496094 C 1356.019531 304.046875 1052.996094 0.972656 678.496094 0.972656 Z M 678.496094 1276.3125 C 348.859375 1276.3125 80.679688 1008.132812 80.679688 678.496094 C 80.679688 348.859375 348.859375 80.679688 678.496094 80.679688 C 1008.132812 80.679688 1276.3125 348.859375 1276.3125 678.496094 C 1276.3125 1008.132812 1008.132812 1276.3125 678.496094 1276.3125 Z M 678.496094 1276.3125 " fill-opacity="1" fill-rule="nonzero"/></g><path fill="#ffde59" d="M 1037.183594 917.621094 L 631.785156 917.621094 C 615.335938 871.234375 571.035156 837.914062 519.078125 837.914062 C 467.121094 837.914062 422.824219 871.234375 406.371094 917.621094 L 319.808594 917.621094 C 297.796875 917.621094 279.953125 935.464844 279.953125 957.476562 C 279.953125 979.488281 297.796875 997.332031 319.808594 997.332031 L 406.371094 997.332031 C 422.824219 1043.71875 467.121094 1077.039062 519.078125 1077.039062 C 571.035156 1077.039062 615.335938 1043.71875 631.785156 997.332031 L 1037.183594 997.332031 C 1059.195312 997.332031 1077.039062 979.488281 1077.039062 957.476562 C 1077.039062 935.464844 1059.195312 917.621094 1037.183594 917.621094 Z M 519.078125 997.332031 C 497.101562 997.332031 479.226562 979.453125 479.226562 957.476562 C 479.226562 935.5 497.101562 917.621094 519.078125 917.621094 C 541.054688 917.621094 558.933594 935.5 558.933594 957.476562 C 558.933594 979.453125 541.054688 997.332031 519.078125 997.332031 Z M 519.078125 997.332031 " fill-opacity="1" fill-rule="nonzero"/><path fill="#ffde59" d="M 1037.183594 399.515625 L 631.785156 399.515625 C 615.335938 353.128906 571.035156 319.808594 519.078125 319.808594 C 467.121094 319.808594 422.824219 353.128906 406.371094 399.515625 L 319.808594 399.515625 C 297.796875 399.515625 279.953125 417.359375 279.953125 439.371094 C 279.953125 461.378906 297.796875 479.226562 319.808594 479.226562 L 406.371094 479.226562 C 422.824219 525.613281 467.121094 558.933594 519.078125 558.933594 C 571.035156 558.933594 615.335938 525.613281 631.785156 479.226562 L 1037.183594 479.226562 C 1059.195312 479.226562 1077.039062 461.378906 1077.039062 439.371094 C 1077.039062 417.359375 1059.195312 399.515625 1037.183594 399.515625 Z M 519.078125 479.226562 C 497.101562 479.226562 479.226562 461.347656 479.226562 439.371094 C 479.226562 417.394531 497.101562 399.515625 519.078125 399.515625 C 541.054688 399.515625 558.933594 417.394531 558.933594 439.371094 C 558.933594 461.347656 541.054688 479.226562 519.078125 479.226562 Z M 519.078125 479.226562 " fill-opacity="1" fill-rule="nonzero"/><path fill="#ffde59" d="M 1037.183594 638.640625 L 950.621094 638.640625 C 934.167969 592.253906 889.871094 558.933594 837.914062 558.933594 C 785.957031 558.933594 741.65625 592.253906 725.207031 638.640625 L 319.808594 638.640625 C 297.796875 638.640625 279.953125 656.484375 279.953125 678.496094 C 279.953125 700.507812 297.796875 718.351562 319.808594 718.351562 L 725.207031 718.351562 C 741.65625 764.738281 785.957031 798.058594 837.914062 798.058594 C 889.871094 798.058594 934.167969 764.738281 950.621094 718.351562 L 1037.183594 718.351562 C 1059.195312 718.351562 1077.039062 700.507812 1077.039062 678.496094 C 1077.039062 656.484375 1059.195312 638.640625 1037.183594 638.640625 Z M 837.914062 718.351562 C 815.9375 718.351562 798.058594 700.472656 798.058594 678.496094 C 798.058594 656.519531 815.9375 638.640625 837.914062 638.640625 C 859.890625 638.640625 877.769531 656.519531 877.769531 678.496094 C 877.769531 700.472656 859.890625 718.351562 837.914062 718.351562 Z M 837.914062 718.351562 " fill-opacity="1" fill-rule="nonzero"/></g></g></svg>