<svg xmlns="http://www.w3.org/2000/svg" xmlns:xlink="http://www.w3.org/1999/xlink" width="3024" zoomAndPan="magnify" viewBox="0 0 2268 567.000005" height="756" preserveAspectRatio="xMidYMid meet" version="1.0"><defs><g/><clipPath id="a1fe5dab2e"><path d="M 551 0 L 2126.785156 0 L 2126.785156 566 L 551 566 Z M 551 0 " clip-rule="nonzero"/></clipPath><clipPath id="f8c7f15c4e"><rect x="0" width="1576" y="0" height="566"/></clipPath><clipPath id="75d65a370b"><path d="M 0.597656 56.601562 L 453.605469 56.601562 L 453.605469 509.609375 L 0.597656 509.609375 Z M 0.597656 56.601562 " clip-rule="nonzero"/></clipPath><clipPath id="12ca7062be"><rect x="0" width="2127" y="0" height="566"/></clipPath></defs><g transform="matrix(1, 0, 0, 1, 58, -0.000000000000018843)"><g clip-path="url(#12ca7062be)"><g clip-path="url(#a1fe5dab2e)"><g transform="matrix(1, 0, 0, 1, 551, -0.000000000000018843)"><g clip-path="url(#f8c7f15c4e)"><g fill="#ffffff" fill-opacity="1"><g transform="translate(1.159061, 465.23921)"><g><path d="M 223.875 -7.046875 C 213.863281 -2.972656 199.863281 0.625 181.875 3.75 C 163.882812 6.882812 143.78125 8.453125 121.5625 8.453125 C 87.769531 8.453125 61.328125 1.878906 42.234375 -11.265625 C 23.148438 -24.410156 13.609375 -45.375 13.609375 -74.15625 C 13.609375 -94.488281 18.925781 -110.753906 29.5625 -122.953125 C 40.207031 -135.160156 54.523438 -144.238281 72.515625 -150.1875 C 90.503906 -156.132812 110.140625 -159.734375 131.421875 -160.984375 C 136.109375 -161.296875 140.796875 -161.375 145.484375 -161.21875 C 150.179688 -161.0625 154.097656 -160.828125 157.234375 -160.515625 C 156.921875 -174.285156 153.632812 -185.394531 147.375 -193.84375 C 141.113281 -202.289062 129.535156 -206.515625 112.640625 -206.515625 C 99.179688 -206.515625 86.664062 -205.023438 75.09375 -202.046875 C 63.519531 -199.078125 53.507812 -195.71875 45.0625 -191.96875 L 32.859375 -241.71875 C 41.617188 -245.15625 53.820312 -248.75 69.46875 -252.5 C 85.113281 -256.257812 102.476562 -258.140625 121.5625 -258.140625 C 182.882812 -258.140625 216.519531 -231.859375 222.46875 -179.296875 C 223.40625 -169.585938 223.875 -159.414062 223.875 -148.78125 Z M 157.703125 -43.171875 L 157.703125 -117.328125 C 153.941406 -117.328125 149.789062 -117.40625 145.25 -117.5625 C 140.71875 -117.726562 135.796875 -117.492188 130.484375 -116.859375 C 116.710938 -115.609375 104.976562 -112.164062 95.28125 -106.53125 C 85.582031 -100.90625 80.734375 -90.738281 80.734375 -76.03125 C 80.734375 -62.894531 84.800781 -53.507812 92.9375 -47.875 C 101.070312 -42.238281 112.019531 -39.421875 125.78125 -39.421875 C 139.550781 -39.421875 150.191406 -40.671875 157.703125 -43.171875 Z M 157.703125 -43.171875 "/></g></g></g><g fill="#ffffff" fill-opacity="1"><g transform="translate(251.790304, 465.23921)"><g><path d="M 172.71875 -200.40625 L 107.015625 -200.40625 L 107.015625 3.75 L 38.015625 3.75 L 38.015625 -200.40625 L 9.859375 -200.40625 L 9.859375 -252.96875 L 38.015625 -252.96875 L 38.015625 -267.53125 C 38.015625 -288.175781 40.28125 -305.851562 44.8125 -320.5625 C 49.351562 -335.269531 57.332031 -346.769531 68.75 -355.0625 C 80.175781 -363.351562 96.210938 -368.125 116.859375 -369.375 C 127.191406 -370 138.222656 -369.609375 149.953125 -368.203125 C 161.691406 -366.796875 171.3125 -365.148438 178.8125 -363.265625 L 171.78125 -311.640625 C 146.4375 -316.648438 129.382812 -314.144531 120.625 -304.125 C 111.863281 -294.113281 107.328125 -277.0625 107.015625 -252.96875 L 172.71875 -252.96875 Z M 172.71875 -200.40625 "/></g></g></g><g fill="#ffffff" fill-opacity="1"><g transform="translate(450.324067, 465.23921)"><g><path d="M 96.6875 -252.96875 L 96.6875 7.984375 L 28.15625 7.984375 L 28.15625 -252.96875 Z M 86.828125 -288.171875 L 38.953125 -288.171875 L 77.90625 -382.984375 L 160.984375 -382.984375 Z M 86.828125 -288.171875 "/></g></g></g><g fill="#ffffff" fill-opacity="1"><g transform="translate(575.170321, 465.23921)"><g><path d="M 243.125 3.75 L 174.125 3.75 L 174.125 -127.1875 C 174.125 -142.832031 173.5 -156.519531 172.25 -168.25 C 171 -179.988281 167.398438 -189.066406 161.453125 -195.484375 C 155.503906 -201.898438 145.335938 -205.109375 130.953125 -205.109375 C 122.503906 -205.109375 115.851562 -204.710938 111 -203.921875 C 106.144531 -203.140625 101.6875 -202.125 97.625 -200.875 L 97.625 3.75 L 28.15625 3.75 L 28.15625 -237.953125 C 39.113281 -244.210938 53.585938 -249.0625 71.578125 -252.5 C 89.566406 -255.945312 110.453125 -257.671875 134.234375 -257.671875 C 158.640625 -257.671875 178.113281 -254.539062 192.65625 -248.28125 C 207.207031 -242.019531 218.082031 -233.414062 225.28125 -222.46875 C 232.476562 -211.519531 237.25 -198.769531 239.59375 -184.21875 C 241.945312 -169.664062 243.125 -154.097656 243.125 -137.515625 Z M 243.125 3.75 "/></g></g></g><g fill="#ffffff" fill-opacity="1"><g transform="translate(847.391425, 465.23921)"><g><path d="M 223.875 -7.046875 C 213.863281 -2.972656 199.863281 0.625 181.875 3.75 C 163.882812 6.882812 143.78125 8.453125 121.5625 8.453125 C 87.769531 8.453125 61.328125 1.878906 42.234375 -11.265625 C 23.148438 -24.410156 13.609375 -45.375 13.609375 -74.15625 C 13.609375 -94.488281 18.925781 -110.753906 29.5625 -122.953125 C 40.207031 -135.160156 54.523438 -144.238281 72.515625 -150.1875 C 90.503906 -156.132812 110.140625 -159.734375 131.421875 -160.984375 C 136.109375 -161.296875 140.796875 -161.375 145.484375 -161.21875 C 150.179688 -161.0625 154.097656 -160.828125 157.234375 -160.515625 C 156.921875 -174.285156 153.632812 -185.394531 147.375 -193.84375 C 141.113281 -202.289062 129.535156 -206.515625 112.640625 -206.515625 C 99.179688 -206.515625 86.664062 -205.023438 75.09375 -202.046875 C 63.519531 -199.078125 53.507812 -195.71875 45.0625 -191.96875 L 32.859375 -241.71875 C 41.617188 -245.15625 53.820312 -248.75 69.46875 -252.5 C 85.113281 -256.257812 102.476562 -258.140625 121.5625 -258.140625 C 182.882812 -258.140625 216.519531 -231.859375 222.46875 -179.296875 C 223.40625 -169.585938 223.875 -159.414062 223.875 -148.78125 Z M 157.703125 -43.171875 L 157.703125 -117.328125 C 153.941406 -117.328125 149.789062 -117.40625 145.25 -117.5625 C 140.71875 -117.726562 135.796875 -117.492188 130.484375 -116.859375 C 116.710938 -115.609375 104.976562 -112.164062 95.28125 -106.53125 C 85.582031 -100.90625 80.734375 -90.738281 80.734375 -76.03125 C 80.734375 -62.894531 84.800781 -53.507812 92.9375 -47.875 C 101.070312 -42.238281 112.019531 -39.421875 125.78125 -39.421875 C 139.550781 -39.421875 150.191406 -40.671875 157.703125 -43.171875 Z M 157.703125 -43.171875 "/></g></g></g><g fill="#ffffff" fill-opacity="1"><g transform="translate(1098.022668, 465.23921)"><g><path d="M 186.796875 -3.28125 C 181.796875 -1.09375 175.304688 1.09375 167.328125 3.28125 C 159.347656 5.476562 150.347656 6.890625 140.328125 7.515625 C 120.929688 8.140625 105.285156 5.789062 93.390625 0.46875 C 81.503906 -4.851562 72.429688 -12.363281 66.171875 -22.0625 C 59.921875 -31.757812 55.539062 -42.941406 53.03125 -55.609375 C 50.53125 -68.285156 48.96875 -81.351562 48.34375 -94.8125 C 48.34375 -104.195312 48.265625 -115.300781 48.109375 -128.125 C 47.953125 -140.957031 47.796875 -153.785156 47.640625 -166.609375 C 47.484375 -179.441406 47.40625 -190.550781 47.40625 -199.9375 L 14.546875 -199.9375 L 14.546875 -252.03125 L 47.40625 -252.03125 L 47.40625 -319.15625 L 116.859375 -319.15625 L 116.859375 -252.96875 L 181.171875 -252.96875 L 181.171875 -200.40625 L 116.859375 -200.40625 L 116.859375 -98.09375 C 116.859375 -80.570312 118.5 -67.820312 121.78125 -59.84375 C 125.070312 -51.863281 132.351562 -47.40625 143.625 -46.46875 C 156.445312 -45.53125 168.960938 -47.875 181.171875 -53.5 C 182.109375 -45.050781 183.046875 -36.679688 183.984375 -28.390625 C 184.921875 -20.097656 185.859375 -11.726562 186.796875 -3.28125 Z M 186.796875 -3.28125 "/></g></g></g><g fill="#ffffff" fill-opacity="1"><g transform="translate(1308.759402, 465.23921)"><g><path d="M 243.59375 -111.234375 L 87.296875 -100.4375 C 89.796875 -82.289062 96.285156 -68.601562 106.765625 -59.375 C 117.253906 -50.144531 132.195312 -45.53125 151.59375 -45.53125 C 165.988281 -45.53125 178.972656 -47.015625 190.546875 -49.984375 C 202.128906 -52.953125 211.832031 -56.316406 219.65625 -60.078125 L 232.328125 -8.921875 C 223.566406 -4.535156 211.597656 -0.390625 196.421875 3.515625 C 181.242188 7.429688 163.957031 9.390625 144.5625 9.390625 C 116.394531 9.390625 92.847656 3.757812 73.921875 -7.5 C 54.992188 -18.769531 40.832031 -34.414062 31.4375 -54.4375 C 22.050781 -74.46875 17.359375 -97.78125 17.359375 -124.375 C 17.359375 -152.851562 22.441406 -177.023438 32.609375 -196.890625 C 42.785156 -216.753906 56.710938 -231.925781 74.390625 -242.40625 C 92.066406 -252.894531 112.015625 -258.140625 134.234375 -258.140625 C 165.835938 -258.140625 191.179688 -248.984375 210.265625 -230.671875 C 229.347656 -212.367188 240.144531 -185.226562 242.65625 -149.25 C 242.65625 -144.238281 242.8125 -138.835938 243.125 -133.046875 C 243.4375 -127.265625 243.59375 -119.992188 243.59375 -111.234375 Z M 176.9375 -151.59375 C 175.375 -188.832031 160.671875 -207.453125 132.828125 -207.453125 C 118.429688 -207.453125 106.929688 -201.894531 98.328125 -190.78125 C 89.722656 -179.675781 85.265625 -164.113281 84.953125 -144.09375 Z M 176.9375 -151.59375 "/></g></g></g></g></g></g><g clip-path="url(#75d65a370b)"><path fill="#ffde59" d="M 226.996094 56.601562 C 101.871094 56.601562 0.597656 157.855469 0.597656 283 C 0.597656 408.125 101.855469 509.398438 226.996094 509.398438 C 352.121094 509.398438 453.394531 408.140625 453.394531 283 C 453.394531 157.875 352.136719 56.601562 226.996094 56.601562 Z M 226.996094 482.761719 C 116.84375 482.761719 27.230469 393.148438 27.230469 283 C 27.230469 172.847656 116.84375 83.234375 226.996094 83.234375 C 337.144531 83.234375 426.757812 172.847656 426.757812 283 C 426.757812 393.148438 337.144531 482.761719 226.996094 482.761719 Z M 226.996094 482.761719 " fill-opacity="1" fill-rule="nonzero"/></g><path fill="#ffde59" d="M 346.851562 362.902344 L 211.386719 362.902344 C 205.890625 347.402344 191.085938 336.269531 173.726562 336.269531 C 156.363281 336.269531 141.558594 347.402344 136.0625 362.902344 L 107.136719 362.902344 C 99.78125 362.902344 93.820312 368.867188 93.820312 376.222656 C 93.820312 383.578125 99.78125 389.539062 107.136719 389.539062 L 136.0625 389.539062 C 141.558594 405.039062 156.363281 416.175781 173.726562 416.175781 C 191.085938 416.175781 205.890625 405.039062 211.386719 389.539062 L 346.851562 389.539062 C 354.207031 389.539062 360.171875 383.578125 360.171875 376.222656 C 360.171875 368.867188 354.207031 362.902344 346.851562 362.902344 Z M 173.726562 389.539062 C 166.382812 389.539062 160.40625 383.566406 160.40625 376.222656 C 160.40625 368.878906 166.382812 362.902344 173.726562 362.902344 C 181.066406 362.902344 187.042969 368.878906 187.042969 376.222656 C 187.042969 383.566406 181.066406 389.539062 173.726562 389.539062 Z M 173.726562 389.539062 " fill-opacity="1" fill-rule="nonzero"/><path fill="#ffde59" d="M 346.851562 189.777344 L 211.386719 189.777344 C 205.890625 174.273438 191.085938 163.140625 173.726562 163.140625 C 156.363281 163.140625 141.558594 174.273438 136.0625 189.777344 L 107.136719 189.777344 C 99.78125 189.777344 93.820312 195.738281 93.820312 203.09375 C 93.820312 210.449219 99.78125 216.410156 107.136719 216.410156 L 136.0625 216.410156 C 141.558594 231.910156 156.363281 243.046875 173.726562 243.046875 C 191.085938 243.046875 205.890625 231.910156 211.386719 216.410156 L 346.851562 216.410156 C 354.207031 216.410156 360.171875 210.449219 360.171875 203.09375 C 360.171875 195.738281 354.207031 189.777344 346.851562 189.777344 Z M 173.726562 216.410156 C 166.382812 216.410156 160.40625 210.4375 160.40625 203.09375 C 160.40625 195.75 166.382812 189.777344 173.726562 189.777344 C 181.066406 189.777344 187.042969 195.75 187.042969 203.09375 C 187.042969 210.4375 181.066406 216.410156 173.726562 216.410156 Z M 173.726562 216.410156 " fill-opacity="1" fill-rule="nonzero"/><path fill="#ffde59" d="M 346.851562 269.679688 L 317.925781 269.679688 C 312.429688 254.179688 297.628906 243.046875 280.265625 243.046875 C 262.902344 243.046875 248.101562 254.179688 242.601562 269.679688 L 107.136719 269.679688 C 99.78125 269.679688 93.820312 275.644531 93.820312 283 C 93.820312 290.355469 99.78125 296.316406 107.136719 296.316406 L 242.601562 296.316406 C 248.101562 311.816406 262.902344 322.953125 280.265625 322.953125 C 297.628906 322.953125 312.429688 311.816406 317.925781 296.316406 L 346.851562 296.316406 C 354.207031 296.316406 360.171875 290.355469 360.171875 283 C 360.171875 275.644531 354.207031 269.679688 346.851562 269.679688 Z M 280.265625 296.316406 C 272.921875 296.316406 266.949219 290.34375 266.949219 283 C 266.949219 275.65625 272.921875 269.679688 280.265625 269.679688 C 287.609375 269.679688 293.582031 275.65625 293.582031 283 C 293.582031 290.34375 287.609375 296.316406 280.265625 296.316406 Z M 280.265625 296.316406 " fill-opacity="1" fill-rule="nonzero"/></g></g></svg>